<svg xmlns="http://www.w3.org/2000/svg" viewBox="-46.0 -207.0 2221.0 324.0" width="2221" height="324"><g transform="translate(-16.150,-224.446) scale(1.79446)"><line x1="64.3" y1="40.0" x2="135.7" y2="40.0" stroke="#cbccd2" stroke-width="9" stroke-linecap="round" stroke-dasharray="17 12"/><line x1="42.7" y1="52.0" x2="157.3" y2="52.0" stroke="#a7a8ad" stroke-width="9" stroke-linecap="round" stroke-dasharray="17 12"/><line x1="29.2" y1="64.0" x2="170.8" y2="64.0" stroke="#828389" stroke-width="9" stroke-linecap="round"/><line x1="20.5" y1="76.0" x2="179.5" y2="76.0" stroke="#5e5f64" stroke-width="9" stroke-linecap="round"/><line x1="15.6" y1="88.0" x2="184.4" y2="88.0" stroke="#393a40" stroke-width="9" stroke-linecap="round"/><line x1="14.0" y1="100.0" x2="69" y2="100.0" stroke="#15161b" stroke-width="9" stroke-linecap="round"/><line x1="131" y1="100.0" x2="186.0" y2="100.0" stroke="#15161b" stroke-width="9" stroke-linecap="round"/><line x1="15.6" y1="112.0" x2="184.4" y2="112.0" stroke="#393a40" stroke-width="9" stroke-linecap="round"/><line x1="20.5" y1="124.0" x2="179.5" y2="124.0" stroke="#5e5f64" stroke-width="9" stroke-linecap="round"/><line x1="29.2" y1="136.0" x2="170.8" y2="136.0" stroke="#828389" stroke-width="9" stroke-linecap="round"/><line x1="42.7" y1="148.0" x2="157.3" y2="148.0" stroke="#a7a8ad" stroke-width="9" stroke-linecap="round" stroke-dasharray="17 12"/><line x1="64.3" y1="160.0" x2="135.7" y2="160.0" stroke="#cbccd2" stroke-width="9" stroke-linecap="round" stroke-dasharray="17 12"/><circle cx="100" cy="100" r="15" fill="#15161B"/></g><g transform="translate(396.576,0.000) scale(1.00000)"><path d="M332 -10Q270 -10 230.0 20.5Q190 51 183 105H182V0H92V730H182V570L180 445H181Q189 498 229.5 529.0Q270 560 332 560Q415 560 464.0 505.0Q513 450 513 355V194Q513 100 464.0 45.0Q415 -10 332 -10ZM302 68Q359 68 391.0 98.0Q423 128 423 195V355Q423 423 391.0 452.5Q359 482 302 482Q247 482 214.5 447.0Q182 412 182 350V200Q182 138 214.5 103.0Q247 68 302 68Z" fill="#8B8C97" transform="translate(0.00,0) scale(0.15000,-0.15000)"/><path d="M299 -10Q204 -10 147.0 46.5Q90 103 90 200V550H180V200Q180 140 212.0 104.5Q244 69 299 69Q355 69 387.5 104.5Q420 140 420 200V550H510V200Q510 103 452.0 46.5Q394 -10 299 -10Z" fill="#8B8C97" transform="translate(91.00,0) scale(0.15000,-0.15000)"/><path d="M85 0V82H280V468H105V550H370V82H555V0ZM315 649Q282 649 263.0 666.0Q244 683 244 712Q244 742 263.0 759.5Q282 777 315 777Q348 777 367.0 759.5Q386 742 386 712Q386 683 367.0 666.0Q348 649 315 649Z" fill="#8B8C97" transform="translate(182.00,0) scale(0.15000,-0.15000)"/><path d="M380 0Q307 0 263.5 42.5Q220 85 220 155V648H30V730H310V155Q310 121 329.0 101.5Q348 82 380 82H550V0Z" fill="#8B8C97" transform="translate(273.00,0) scale(0.15000,-0.15000)"/><path d="M355 0Q287 0 246.0 39.5Q205 79 205 145V468H47V550H205V705H295V550H520V468H295V145Q295 117 311.5 99.5Q328 82 355 82H515V0Z" fill="#8B8C97" transform="translate(364.00,0) scale(0.15000,-0.15000)"/><path d="M332 -10Q270 -10 230.0 20.5Q190 51 183 105H182V0H92V730H182V570L180 445H181Q189 498 229.5 529.0Q270 560 332 560Q415 560 464.0 505.0Q513 450 513 355V194Q513 100 464.0 45.0Q415 -10 332 -10ZM302 68Q359 68 391.0 98.0Q423 128 423 195V355Q423 423 391.0 452.5Q359 482 302 482Q247 482 214.5 447.0Q182 412 182 350V200Q182 138 214.5 103.0Q247 68 302 68Z" fill="#8B8C97" transform="translate(546.00,0) scale(0.15000,-0.15000)"/><path d="M178 -180 259 34 54 550H151L281 210Q289 190 296.0 168.0Q303 146 306 130Q309 146 316.0 168.0Q323 190 330 210L451 550H546L272 -180Z" fill="#8B8C97" transform="translate(637.00,0) scale(0.15000,-0.15000)"/></g><g transform="translate(1151.776,0.900) scale(0.60000)"><path d="M92 0V550H182V445H183Q190 500 228.0 530.0Q266 560 329 560Q412 560 461.0 509.0Q510 458 510 370V0H420V354Q420 417 388.5 450.5Q357 484 303 484Q247 484 214.5 449.0Q182 414 182 350V0Z" fill="#8B8C97" transform="translate(0.00,0) scale(0.25000,-0.25000)"/><path d="M92 0V550H182V445H183Q190 500 228.0 530.0Q266 560 329 560Q412 560 461.0 509.0Q510 458 510 370V0H420V354Q420 417 388.5 450.5Q357 484 303 484Q247 484 214.5 449.0Q182 414 182 350V0Z" fill="#8B8C97" transform="translate(150.00,0) scale(0.25000,-0.25000)"/><path d="M92 0V550H182V445H183Q190 500 228.0 530.0Q266 560 329 560Q412 560 461.0 509.0Q510 458 510 370V0H420V354Q420 417 388.5 450.5Q357 484 303 484Q247 484 214.5 449.0Q182 414 182 350V0Z" fill="#8B8C97" transform="translate(300.00,0) scale(0.25000,-0.25000)"/><path d="M277 -9Q179 -9 122.0 35.5Q65 80 65 156H188Q188 124 211.5 107.0Q235 90 277 90H321Q366 90 390.5 107.0Q415 124 415 156Q415 186 398.0 200.5Q381 215 346 220L209 238Q143 247 107.5 289.0Q72 331 72 398Q72 476 124.0 517.5Q176 559 274 559H320Q412 559 468.0 517.0Q524 475 526 405H402Q401 431 379.0 446.5Q357 462 320 462H274Q234 462 213.0 445.5Q192 429 192 401Q192 376 207.5 364.0Q223 352 253 349L382 331Q458 322 496.5 277.5Q535 233 535 158Q535 78 480.5 34.5Q426 -9 321 -9Z" fill="#15161B" transform="translate(450.00,0) scale(0.25000,-0.25000)"/><path d="M76 0V113H264V437H96V550H389V113H558V0Z" fill="#15161B" transform="translate(600.00,0) scale(0.25000,-0.25000)"/><path d="M152 -180V-76H307Q351 -76 375.0 -52.5Q399 -29 399 11V44L401 130Q384 84 346.5 58.5Q309 33 255 33Q171 33 121.5 89.5Q72 146 72 243V350Q72 446 121.5 503.0Q171 560 255 560Q309 560 346.5 534.5Q384 509 401 462V550H523V8Q523 -79 465.5 -129.5Q408 -180 309 -180ZM297 140Q345 140 371.5 168.5Q398 197 398 248V344Q398 395 371.5 423.5Q345 452 297 452Q249 452 223.0 424.5Q197 397 197 348V244Q197 195 223.0 167.5Q249 140 297 140Z" fill="#15161B" transform="translate(750.00,0) scale(0.25000,-0.25000)"/><path d="M77 0V730H202V550L199 448Q209 500 248.0 530.0Q287 560 347 560Q428 560 476.5 506.0Q525 452 525 361V0H400V346Q400 397 373.5 424.5Q347 452 302 452Q255 452 228.5 424.0Q202 396 202 344V0Z" fill="#15161B" transform="translate(900.00,0) scale(0.25000,-0.25000)"/><path d="M355 0Q278 0 232.5 44.5Q187 89 187 165V437H35V550H187V705H313V550H532V437H313V168Q313 144 326.5 128.5Q340 113 364 113H527V0Z" fill="#15161B" transform="translate(1050.00,0) scale(0.25000,-0.25000)"/><path d="M92 0V550H182V445H183Q190 500 228.0 530.0Q266 560 329 560Q412 560 461.0 509.0Q510 458 510 370V0H420V354Q420 417 388.5 450.5Q357 484 303 484Q247 484 214.5 449.0Q182 414 182 350V0Z" fill="#8B8C97" transform="translate(1200.00,0) scale(0.25000,-0.25000)"/><path d="M92 0V550H182V445H183Q190 500 228.0 530.0Q266 560 329 560Q412 560 461.0 509.0Q510 458 510 370V0H420V354Q420 417 388.5 450.5Q357 484 303 484Q247 484 214.5 449.0Q182 414 182 350V0Z" fill="#8B8C97" transform="translate(1350.00,0) scale(0.25000,-0.25000)"/><path d="M92 0V550H182V445H183Q190 500 228.0 530.0Q266 560 329 560Q412 560 461.0 509.0Q510 458 510 370V0H420V354Q420 417 388.5 450.5Q357 484 303 484Q247 484 214.5 449.0Q182 414 182 350V0Z" fill="#8B8C97" transform="translate(1500.00,0) scale(0.25000,-0.25000)"/><circle cx="679.50" cy="-178.50" r="19.25" fill="#15161B"/></g></svg>